<svg width="97" height="97" viewBox="0 0 97 97" fill="none" xmlns="http://www.w3.org/2000/svg">
<path d="M47.6881 45.9881H47.867C48.2404 36.1153 52.4869 26.7868 59.6874 20.0218C66.8878 13.2567 76.4627 9.59953 86.3396 9.84182C89.9184 9.84182 93.3183 10.2892 96.7182 11.1839V11.0944C96.7182 4.92091 91.7079 0 85.6238 0H11.0049C4.92091 0 0 4.92091 0 11.0944V45.9881H47.6881Z" fill="#B41733"/>
<path d="M52.9669 48.3144C52.9669 67.3717 67.2822 81.6871 86.2501 81.6871C89.829 81.6871 93.4078 81.1503 96.7182 80.1661V16.5521C93.324 15.5268 89.7958 15.0142 86.2501 15.0311C67.2822 15.0311 52.9669 29.3465 52.9669 48.3144ZM19.8626 50.5512H0V85.6238C0 91.7078 4.92091 96.7182 11.0049 96.7182H19.9521V50.5512H19.8626Z" fill="#B41733"/>
<path d="M86.2501 86.7869C76.3583 87.0287 66.7703 83.3593 59.5674 76.5752C52.3645 69.791 48.128 60.4397 47.7775 50.5512H24.4256V96.7182H85.6238C91.7078 96.7182 96.7182 91.7079 96.7182 85.6238V85.5344C93.297 86.3989 89.7788 86.8199 86.2501 86.7869Z" fill="#B41733"/>
</svg>
